<mxfile host="app.diagrams.net" agent="Mozilla/5.0 (Windows NT 10.0; Win64; x64) AppleWebKit/537.36 (KHTML, like Gecko) Chrome/136.0.0.0 Safari/537.36 Edg/136.0.0.0" version="27.1.4">
  <diagram name="Página-1" id="EO-OEp6GeF-ckY3a1lur">
    <mxGraphModel dx="1068" dy="513" grid="1" gridSize="10" guides="1" tooltips="1" connect="1" arrows="1" fold="1" page="1" pageScale="1" pageWidth="827" pageHeight="1169" math="0" shadow="0">
      <root>
        <mxCell id="0" />
        <mxCell id="1" parent="0" />
        <mxCell id="BjqVbBCkHxD6fvfbXFkM-2" value="App Backend feita com Python e FastAPI" style="rounded=1;whiteSpace=wrap;html=1;" vertex="1" parent="1">
          <mxGeometry x="450" y="290" width="310" height="170" as="geometry" />
        </mxCell>
        <mxCell id="BjqVbBCkHxD6fvfbXFkM-1" value="Chatbot feito com Tensorflow usando encoder/decoder" style="rounded=1;whiteSpace=wrap;html=1;" vertex="1" parent="1">
          <mxGeometry x="630" y="390" width="120" height="60" as="geometry" />
        </mxCell>
        <mxCell id="BjqVbBCkHxD6fvfbXFkM-3" value="Usuario" style="shape=umlActor;verticalLabelPosition=bottom;verticalAlign=top;html=1;outlineConnect=0;" vertex="1" parent="1">
          <mxGeometry x="10" y="335" width="30" height="60" as="geometry" />
        </mxCell>
        <mxCell id="BjqVbBCkHxD6fvfbXFkM-4" value="App Front End" style="rounded=1;whiteSpace=wrap;html=1;" vertex="1" parent="1">
          <mxGeometry x="50" y="295" width="130" height="160" as="geometry" />
        </mxCell>
        <mxCell id="BjqVbBCkHxD6fvfbXFkM-5" value="" style="endArrow=classic;html=1;rounded=0;exitX=0.99;exitY=0.294;exitDx=0;exitDy=0;exitPerimeter=0;entryX=0.002;entryY=0.314;entryDx=0;entryDy=0;entryPerimeter=0;" edge="1" parent="1" source="BjqVbBCkHxD6fvfbXFkM-4" target="BjqVbBCkHxD6fvfbXFkM-2">
          <mxGeometry width="50" height="50" relative="1" as="geometry">
            <mxPoint x="390" y="380" as="sourcePoint" />
            <mxPoint x="440" y="330" as="targetPoint" />
          </mxGeometry>
        </mxCell>
        <mxCell id="BjqVbBCkHxD6fvfbXFkM-6" value="HTTP Request POST&lt;div&gt;Content-Type: application/json&lt;/div&gt;&lt;div&gt;&lt;br&gt;&lt;/div&gt;&lt;div&gt;{&quot;mensagem&quot;: &quot;Ola como vai você&quot;}&lt;/div&gt;" style="edgeLabel;html=1;align=center;verticalAlign=middle;resizable=0;points=[];" vertex="1" connectable="0" parent="BjqVbBCkHxD6fvfbXFkM-5">
          <mxGeometry x="0.3396" relative="1" as="geometry">
            <mxPoint x="-31" y="-43" as="offset" />
          </mxGeometry>
        </mxCell>
        <mxCell id="BjqVbBCkHxD6fvfbXFkM-7" value="" style="endArrow=classic;html=1;rounded=0;exitX=-0.002;exitY=0.576;exitDx=0;exitDy=0;exitPerimeter=0;entryX=1;entryY=0.585;entryDx=0;entryDy=0;entryPerimeter=0;" edge="1" parent="1" source="BjqVbBCkHxD6fvfbXFkM-2" target="BjqVbBCkHxD6fvfbXFkM-4">
          <mxGeometry width="50" height="50" relative="1" as="geometry">
            <mxPoint x="390" y="380" as="sourcePoint" />
            <mxPoint x="440" y="330" as="targetPoint" />
          </mxGeometry>
        </mxCell>
        <mxCell id="BjqVbBCkHxD6fvfbXFkM-8" value="HTTP Response&lt;div&gt;Content-Type: application/json&lt;/div&gt;&lt;div&gt;&lt;br&gt;&lt;/div&gt;&lt;div&gt;{&quot;resposta&quot;: &quot;Eu vou bem obrigado&quot;}&lt;/div&gt;" style="edgeLabel;html=1;align=center;verticalAlign=middle;resizable=0;points=[];" vertex="1" connectable="0" parent="BjqVbBCkHxD6fvfbXFkM-7">
          <mxGeometry x="-0.0209" y="-2" relative="1" as="geometry">
            <mxPoint y="34" as="offset" />
          </mxGeometry>
        </mxCell>
      </root>
    </mxGraphModel>
  </diagram>
</mxfile>
